<svg width="300" height="357" viewBox="0 0 300 357" fill="none" xmlns="http://www.w3.org/2000/svg">
<path d="M27.7529 23.5H272.161C274.923 23.5 277.033 25.9639 276.608 28.6923L226.165 352.692C225.823 354.884 223.936 356.5 221.718 356.5H73.3457C71.1027 356.5 69.2021 354.848 68.8896 352.627L23.2968 28.6271C22.9157 25.9191 25.0182 23.5 27.7529 23.5Z" fill="#C4A77D" stroke="#1E202E"/>
<rect x="0.5" y="23.5" width="299" height="37" rx="4.5" fill="#FDFFFC" stroke="#1E202E"/>
<rect x="32" width="236" height="42" rx="10" fill="#FDFFFC"/>
<path d="M41.7218 139.5H257.106C259.884 139.5 261.998 141.993 261.545 144.734L242.037 262.734C241.678 264.906 239.8 266.5 237.598 266.5H57.6828C55.4306 266.5 53.5253 264.835 53.2234 262.603L37.2625 144.603C36.8972 141.903 38.9969 139.5 41.7218 139.5Z" fill="#352713" stroke="#1E202E"/>
</svg>
