<svg width="242" height="314" viewBox="0 0 242 314" fill="none" xmlns="http://www.w3.org/2000/svg">
<path d="M227 268C227 274.026 224.256 279.842 219.142 285.216C214.023 290.595 206.568 295.485 197.279 299.613C178.705 307.868 152.974 313 124.5 313C96.0257 313 70.2951 307.868 51.7206 299.613C42.4321 295.485 34.9772 290.595 29.8579 285.216C24.7436 279.842 22 274.026 22 268C22 261.974 24.7436 256.158 29.8579 250.784C34.9772 245.405 42.4321 240.515 51.7206 236.387C70.2951 228.132 96.0257 223 124.5 223C152.974 223 178.705 228.132 197.279 236.387C206.568 240.515 214.023 245.405 219.142 250.784C224.256 256.158 227 261.974 227 268Z" fill="#FDFFFC" stroke="#1E202E" stroke-width="2"/>
<path d="M7.89982 145.99L7.90042 145.99L7.90044 145.99L7.9494 146H8L238.752 146C238.825 146.103 238.925 146.254 239.042 146.457C239.305 146.91 239.654 147.621 239.981 148.627C240.634 150.638 241.198 153.838 240.782 158.53C239.947 167.921 235.181 183.284 219.332 206.996C203.472 230.725 189.769 245.946 174.176 255.224C158.594 264.495 141.071 267.863 117.502 267.774C99.0823 267.704 83.7193 259.951 70.0586 248.481C56.3882 237.003 44.456 221.831 32.8947 206.967C19.7785 190.103 11.7039 177.83 6.96503 168.911C2.21703 159.974 0.851807 154.465 1.06155 151.106C1.1655 149.441 1.65478 148.325 2.2914 147.57C2.93019 146.813 3.75101 146.379 4.58323 146.141C5.41849 145.901 6.25051 145.862 6.88077 145.885C7.19424 145.897 7.45353 145.924 7.63273 145.948C7.72222 145.96 7.79144 145.971 7.8371 145.978C7.85993 145.982 7.87685 145.985 7.88744 145.987L7.89853 145.99L7.89982 145.99Z" fill="#FDFFFC" stroke="black"/>
<path d="M79.7451 130.5C79.7451 130.5 98.7451 100.5 79.7451 102C70.982 102.692 57.9466 101 71 71C84.0533 41 98.5 61.5 98.5 27" stroke="#FDFFFC"/>
<path d="M157.167 65.5C157.167 65.5 184.167 19 165.167 20.5C146.167 22 157.167 1 157.167 1" stroke="#FDFFFC"/>
<path d="M142.428 135.5C142.428 135.5 130.261 108 151.77 106.5C173.279 105 157.636 74.2204 147.761 75C128.761 76.5 147.761 49 147.761 49" stroke="#FDFFFC"/>
</svg>
