<svg width="186" height="431" viewBox="0 0 186 431" fill="none" xmlns="http://www.w3.org/2000/svg">
<path d="M183.5 389.5C183.5 394.42 181.276 399.293 176.877 403.934C172.466 408.588 165.965 412.892 157.742 416.562C141.302 423.898 118.414 428.5 93 428.5C67.586 428.5 44.6984 423.898 28.2578 416.562C20.0346 412.892 13.534 408.588 9.12285 403.934C4.72409 399.293 2.5 394.42 2.5 389.5C2.5 384.58 4.72409 379.707 9.12285 375.066C13.534 370.412 20.0346 366.108 28.2578 362.438C44.6984 355.102 67.586 350.5 93 350.5C118.414 350.5 141.302 355.102 157.742 362.438C165.965 366.108 172.466 370.412 176.877 375.066C181.276 379.707 183.5 384.58 183.5 389.5Z" fill="#FFE156" stroke="#FDFFFC" stroke-width="5"/>
<mask id="path-2-inside-1_56_150" fill="white">
<path d="M0 38H186V390H0V38Z"/>
</mask>
<path d="M0 38H186V390H0V38Z" fill="#FFE156"/>
<path d="M181 38V390H191V38H181ZM5 390V38H-5V390H5Z" fill="#FDFFFC" mask="url(#path-2-inside-1_56_150)"/>
<path d="M183.5 41.5C183.5 46.42 181.276 51.2931 176.877 55.9339C172.466 60.5877 165.965 64.8924 157.742 68.5619C141.302 75.8983 118.414 80.5 93 80.5C67.586 80.5 44.6984 75.8983 28.2578 68.5619C20.0346 64.8924 13.534 60.5877 9.12285 55.9339C4.72409 51.2931 2.5 46.42 2.5 41.5C2.5 36.58 4.72409 31.7069 9.12285 27.0661C13.534 22.4123 20.0346 18.1076 28.2578 14.4381C44.6984 7.10171 67.586 2.5 93 2.5C118.414 2.5 141.302 7.10171 157.742 14.4381C165.965 18.1076 172.466 22.4123 176.877 27.0661C181.276 31.7069 183.5 36.58 183.5 41.5Z" fill="#C6C6C6" stroke="#FDFFFC" stroke-width="5"/>
<ellipse cx="93" cy="59" rx="33" ry="15" fill="#1E202E"/>
<rect x="78" y="16" width="30" height="50" rx="15" fill="#D9D9D9"/>
<ellipse cx="93.5" cy="27.5" rx="8.5" ry="7.5" fill="#B4B4B4"/>
<ellipse cx="93.5" cy="54.5" rx="8.5" ry="9.5" fill="#1E202E"/>
<path d="M16.3015 135.911C23.3128 138.608 30.0475 149.456 32.7641 156.247" stroke="#1E202E" stroke-width="3" stroke-linecap="round"/>
<path d="M47.29 140.753C40.3932 141.443 40.1979 154.52 34.7009 158.184" stroke="#1E202E" stroke-width="3" stroke-linecap="round"/>
<path d="M34.7009 158.184C34.7009 168.518 33.7325 178.959 33.7325 189.173" stroke="#1E202E" stroke-width="3" stroke-linecap="round"/>
<path d="M56.9739 143.658C56.9739 156.642 55.1811 167.973 53.1003 180.457" stroke="#1E202E" stroke-width="3" stroke-linecap="round"/>
<path d="M59.8791 144.627H78.2785" stroke="#1E202E" stroke-width="3" stroke-linecap="round"/>
<path d="M58.9107 163.026H70.5314" stroke="#1E202E" stroke-width="3" stroke-linecap="round"/>
<path d="M55.0371 182.394H68.5946" stroke="#1E202E" stroke-width="3" stroke-linecap="round"/>
<path d="M90.8676 152.374C90.8676 163.516 90.6829 175.386 87.9625 186.268" stroke="#1E202E" stroke-width="3" stroke-linecap="round"/>
<path d="M90.8676 162.058C90.8676 157.736 90.896 152.642 94.7412 149.684C97.3384 147.686 106.325 141.147 109.805 144.627C114.447 149.269 106.017 165.112 100.552 165.931C98.3565 166.261 95.9905 165.801 93.7728 165.931C91.8913 166.042 96.4974 169.749 97.1084 170.666C100.858 176.291 104.275 182.911 106.362 189.173" stroke="#1E202E" stroke-width="3" stroke-linecap="round"/>
<path d="M128.635 147.532V188.204" stroke="#1E202E" stroke-width="3" stroke-linecap="round"/>
<path d="M130.572 148.5C134.558 148.376 151.308 143.281 152.791 149.953C153.578 153.494 152.251 157.347 150.478 160.336C147.53 165.305 143.963 166.9 138.373 166.9C137.78 166.9 134.479 166.9 136.866 166.9C140.807 166.9 145.61 169.112 149.079 170.773C152.792 172.551 153.813 174.781 153.813 178.951C153.813 182.054 146.403 185.1 144.129 186.267C140.3 188.234 134.795 190.141 130.572 190.141" stroke="#1E202E" stroke-width="3" stroke-linecap="round"/>
</svg>
